<svg width="14" height="24" viewBox="0 0 14 24" fill="none" xmlns="http://www.w3.org/2000/svg">
<path d="M6.8907 22.3434C6.88006 23.1715 8.01758 23.3428 8.22111 22.5437L13.0872 11.1076C13.1072 11.0607 13.1242 11.0123 13.1343 10.9623C13.3234 10.0221 12.5565 9.15821 11.6409 9.27198C11.5794 9.27962 11.5177 9.28684 11.4557 9.28724L5.72028 9.32403L6.74572 1.02401C6.7381 0.205248 5.61646 0.049964 5.41528 0.839815L0.447612 12.6717C0.428494 12.7172 0.412136 12.7642 0.40231 12.8126C0.207107 13.7741 1.01102 14.6495 1.94257 14.4986C2.00281 14.4889 2.06329 14.4795 2.12426 14.4768L8.11989 14.2076L6.8907 22.3434Z" fill="#A1A1B3"/>
</svg>
