<svg width="16" height="16" viewBox="0 0 16 16" fill="none" xmlns="http://www.w3.org/2000/svg">
<path fill-rule="evenodd" clip-rule="evenodd" d="M11.25 2.99998C11.25 2.49372 10.8396 2.08331 10.3333 2.08331H10.2798C9.8514 2.08331 9.4737 2.36434 9.35059 2.77469L9.008 3.91665H10.3333C10.8396 3.91665 11.25 3.50624 11.25 2.99998ZM10.3333 0.583313C11.668 0.583313 12.75 1.66529 12.75 2.99998C12.75 3.42307 12.6413 3.82076 12.4502 4.16665H13.6666C14.4951 4.16665 15.1666 4.83822 15.1666 5.66665C15.1666 6.49507 14.4951 7.16665 13.6666 7.16665H2.33331C1.50488 7.16665 0.833313 6.49507 0.833313 5.66665C0.833313 4.83822 1.50489 4.16665 2.33331 4.16665H3.54973C3.3587 3.82076 3.24998 3.42307 3.24998 2.99998C3.24998 1.66529 4.33196 0.583313 5.66665 0.583313H5.72013C6.72483 0.583313 7.61997 1.19029 7.99998 2.1025C8.37999 1.19029 9.27513 0.583313 10.2798 0.583313H10.3333ZM5.66665 2.08331C5.16039 2.08331 4.74998 2.49372 4.74998 2.99998C4.74998 3.50624 5.16039 3.91665 5.66665 3.91665H6.99196L6.64937 2.77469C6.52626 2.36434 6.14856 2.08331 5.72013 2.08331H5.66665ZM3.92831 8.16665L3.94665 8.16665H12.0533L12.0717 8.16665C12.28 8.16664 12.4655 8.16663 12.6195 8.17921C12.7838 8.19263 12.9557 8.22284 13.1235 8.30834C13.3681 8.43297 13.567 8.63185 13.6916 8.87646C13.7771 9.04426 13.8073 9.21617 13.8208 9.38049C13.8333 9.53447 13.8333 9.71999 13.8333 9.9283V9.94665V11.4666V11.4881V11.4881C13.8333 12.03 13.8333 12.467 13.8044 12.821C13.7746 13.1854 13.7117 13.5055 13.5608 13.8016C13.3211 14.272 12.9387 14.6545 12.4683 14.8942C12.1721 15.0451 11.852 15.108 11.4876 15.1377C11.1337 15.1667 10.6966 15.1667 10.1547 15.1666H10.1333H5.86665H5.84526C5.30336 15.1667 4.86628 15.1667 4.51234 15.1377C4.14791 15.108 3.82782 15.0451 3.53167 14.8942C3.06126 14.6545 2.67881 14.272 2.43913 13.8016C2.28824 13.5055 2.22533 13.1854 2.19556 12.821C2.16664 12.467 2.16664 12.0299 2.16665 11.4881L2.16665 11.4666V9.94665L2.16665 9.92831C2.16664 9.72 2.16663 9.53447 2.17921 9.38049C2.19263 9.21617 2.22284 9.04426 2.30834 8.87646C2.43297 8.63185 2.63185 8.43297 2.87646 8.30834C3.04426 8.22284 3.21617 8.19263 3.38049 8.17921C3.53447 8.16663 3.72 8.16664 3.92831 8.16665Z" fill="url(#paint0_linear_10_1621)"/>
<defs>
<linearGradient id="paint0_linear_10_1621" x1="7.99997" y1="0.583311" x2="7.99997" y2="15.1666" gradientUnits="userSpaceOnUse">
<stop stop-color="#80D4FF"/>
<stop offset="1" stop-color="#49ACF2"/>
</linearGradient>
</defs>
</svg>
