<svg width="14" height="17" viewBox="0 0 14 17" fill="none" xmlns="http://www.w3.org/2000/svg">
<path fill-rule="evenodd" clip-rule="evenodd" d="M7.00001 8C9.20914 8 11 6.20914 11 4C11 1.79086 9.20914 0 7.00001 0C4.79087 0 3.00001 1.79086 3.00001 4C3.00001 6.20914 4.79087 8 7.00001 8ZM13.7162 15.027C14.0276 16.0868 13.1046 17 12 17H7.00001H2.00001C0.895436 17 -0.0275691 16.0868 0.283785 15.027C0.611233 13.9125 1.21404 12.8865 2.05026 12.0503C3.36301 10.7375 5.14349 10 7.00001 10C8.85652 10 10.637 10.7375 11.9498 12.0503C12.786 12.8865 13.3888 13.9125 13.7162 15.027Z" fill="url(#paint0_linear_148_3)"/>
<defs>
<linearGradient id="paint0_linear_148_3" x1="7" y1="-2.68637e-06" x2="7" y2="17" gradientUnits="userSpaceOnUse">
<stop stop-color="#80D4FF"/>
<stop offset="1" stop-color="#49ACF2"/>
</linearGradient>
</defs>
</svg>
