<svg width="28" height="28" viewBox="0 0 28 28" fill="none" xmlns="http://www.w3.org/2000/svg">
<rect width="28" height="28" rx="14" fill="url(#paint0_linear_19_920)"/>
<path d="M15.0075 15.6758C16.8266 15.6468 18.1963 15.2047 19.1165 14.3495C20.0366 13.487 20.4967 12.2875 20.4967 10.7509C20.4967 9.1854 20.0366 8.00401 19.1165 7.20676C18.1963 6.40225 16.8372 6 15.0394 6H9.16792V21.8292H12.4169V8.01126H14.6253C15.5455 8.00401 16.2002 8.19246 16.5895 8.57659C16.9788 8.95347 17.1735 9.68188 17.1735 10.7618C17.1735 11.82 16.9753 12.5701 16.5789 13.0122C16.1896 13.4471 15.5384 13.6645 14.6253 13.6645H8V15.6758H15.0075ZM16.5789 17.7958H8V19.5353H16.5789V17.7958Z" fill="white"/>
<defs>
<linearGradient id="paint0_linear_19_920" x1="4.40587e-08" y1="12.3721" x2="28" y2="12.3721" gradientUnits="userSpaceOnUse">
<stop stop-color="#1AB2FF"/>
<stop offset="1" stop-color="#177EE6"/>
</linearGradient>
</defs>
</svg>
