<svg width="20" height="18" viewBox="0 0 20 18" fill="none" xmlns="http://www.w3.org/2000/svg">
<path d="M9.33426 1.04893C9.54381 0.404016 10.4562 0.404018 10.6657 1.04894L12.3125 6.11713C12.4062 6.40554 12.675 6.60081 12.9782 6.60081H18.3072C18.9854 6.60081 19.2673 7.46854 18.7187 7.86712L14.4074 10.9994C14.1621 11.1777 14.0594 11.4936 14.1531 11.7821L15.7999 16.8503C16.0094 17.4952 15.2713 18.0315 14.7227 17.6329L10.4114 14.5006C10.1661 14.3223 9.83389 14.3223 9.58855 14.5006L5.27729 17.6329C4.72869 18.0315 3.99056 17.4952 4.2001 16.8503L5.84686 11.7821C5.94057 11.4936 5.83791 11.1777 5.59257 10.9994L1.28131 7.86712C0.732706 7.46854 1.01465 6.60081 1.69276 6.60081H7.02177C7.32502 6.60081 7.59379 6.40554 7.68751 6.11712L9.33426 1.04893Z" fill="#AAAAB3"/>
</svg>
