<svg width="98" height="36" viewBox="0 0 98 36" fill="none" xmlns="http://www.w3.org/2000/svg">
<path fill-rule="evenodd" clip-rule="evenodd" d="M6.65831 0L4.99269 4.67248H28.0744L29.74 0H6.65831ZM4.15936 7.00766L2.49375 11.6791H25.5755L27.2411 7.00766H4.15936ZM1.66562 14.0153L0 18.6868H23.0817L24.7463 14.0153H1.66562Z" fill="#469ED8"/>
<path fill-rule="evenodd" clip-rule="evenodd" d="M49.0702 20.4675V20.5661C50.1251 20.9626 51.1327 21.6559 51.6606 22.1012C53.2917 23.4879 54.0117 25.3199 54.0117 27.6968C54.0117 31.6099 51.9965 34.4321 48.6861 35.3237C47.6784 35.6205 46.6236 35.7202 44.6556 35.7202H34.6299V7.09766H43.5053C45.3284 7.09766 46.5753 7.19624 47.6784 7.49309C50.8934 8.3847 53.0041 10.663 53.0041 14.2771C53.0041 16.2088 52.3324 17.8436 51.2292 18.9324C50.7496 19.4275 50.0778 20.0222 49.0702 20.4675ZM40.1948 23.4879V31.0151H44.0332C45.1836 31.0151 46.2395 30.9166 47.0078 30.1734C47.775 29.4302 48.1109 28.4898 48.1109 27.2515C48.1109 26.3112 47.8705 25.4196 47.3909 24.776C46.5753 23.736 45.5677 23.4879 43.8411 23.4879H40.1948ZM40.1466 18.5358H43.2649C44.2242 18.5358 44.7039 18.5358 45.1836 18.3874C46.4798 17.9909 47.2953 16.8035 47.2953 15.1687C47.2953 13.2382 46.4315 12.3953 45.1836 11.9999C44.6556 11.8515 44.1287 11.8016 43.0728 11.8016H40.1466V18.5358ZM62.3591 35.7202V11.9002H54.3476V7.09766H76.6084L75.0257 11.9002H67.9241V35.7202H62.3591ZM78.335 35.7202V7.09766H96.3744L94.7916 11.9002H83.8527V18.239H88.3146C91.9126 18.239 93.784 19.1306 95.0792 20.2692C96.0868 21.1608 97.8134 23.1412 97.8134 27.0544C97.8134 30.9166 96.0385 33.0454 94.5513 34.1352C92.8247 35.3724 91.0015 35.7202 87.307 35.7202H78.335ZM83.8527 30.9166H88.027C89.6098 30.9166 90.5691 30.52 91.2408 29.6284C91.5767 29.1832 92.0564 28.3901 92.0564 26.9048C92.0564 25.4196 91.5767 24.3795 90.6174 23.6363C90.0422 23.1911 89.2739 22.9441 87.9787 22.9441H83.8527V30.9166Z" fill="white"/>
</svg>
